<svg xmlns="http://www.w3.org/2000/svg" width="1024" height="1024" viewBox="0 0 1024 1024">
  <defs>
    <linearGradient id="g" x1="0" y1="0" x2="1" y2="1">
      <stop offset="0" stop-color="#0b1b3a"/>
      <stop offset="1" stop-color="#12507a"/>
    </linearGradient>
  </defs>
  <rect width="1024" height="1024" rx="224" fill="url(#g)"/>
  <g stroke="#ffffff" stroke-opacity="0.07" stroke-width="3">
    <path d="M128 0V1024M256 0V1024M384 0V1024M512 0V1024M640 0V1024M768 0V1024M896 0V1024"/>
    <path d="M0 128H1024M0 256H1024M0 384H1024M0 512H1024M0 640H1024M0 768H1024M0 896H1024"/>
  </g>
  <circle cx="512" cy="540" r="205" fill="none" stroke="#38bdf8" stroke-width="26"/>
  <g stroke="#38bdf8" stroke-width="26" stroke-linecap="round">
    <path d="M512 290V400M512 680V790M262 540H372M652 540H762"/>
  </g>
  <path d="M512 150L552 250L512 228L472 250Z" fill="#fbbf24"/>
  <circle cx="512" cy="540" r="30" fill="#f43f5e" stroke="#ffffff" stroke-width="10"/>
</svg>
